# xmcd CD database file
#
# Track frame offsets:
#	150
#	17438
#	33706
#	50711
#	69943
#	89216
#	113447
#	131608
#	147167
#	165661
#	182202
#	202969
#	220110
#
# Disc length: 3145 seconds
#
# Revision: 1
# Processed by: cddbd v1.5.2PL0 Copyright (c) Steve Scherf et al.
# Submitted via: CDex 1.70beta2
#
DISCID=b80c470d
DTITLE=Sarah Jane Morris - Where It hurts
DYEAR=2009
DGENRE=Jazz
TTITLE0=A World To Win
TTITLE1=You Know Her
TTITLE2=Never Forget How To Dance
TTITLE3=You're Really Nowhere At All
TTITLE4=Warm Welcome Cold Goodbyes
TTITLE5=Promised Land
TTITLE6=It's A Shame
TTITLE7=Under The Stars
TTITLE8=Illumination
TTITLE9=Sunset
TTITLE10=Betrayal
TTITLE11=Good Night God Bless
TTITLE12=I Learned To Love You
EXTD=YEAR: 2009
EXTT0=
EXTT1=
EXTT2=
EXTT3=
EXTT4=
EXTT5=
EXTT6=
EXTT7=
EXTT8=
EXTT9=
EXTT10=
EXTT11=
EXTT12=
PLAYORDER=
